RobotoSerifTextWide-Super 01h.ufo
<glyph name="comma" format="2">
  <advance width="404"/>
  <unicode hex="002C"/>
  <outline>
    <contour>
      <point x="176" y="-195" type="line"/>
      <point x="300" y="-117"/>
      <point x="355" y="-29"/>
      <point x="355" y="65" type="curve" smooth="yes"/>
      <point x="355.0" y="155.0"/>
      <point x="292.2151898734177" y="198.0"/>
      <point x="200" y="198" type="curve" smooth="yes"/>
      <point x="112.15714285714286" y="198.0"/>
      <point x="57.0" y="152.0"/>
      <point x="57" y="89" type="curve" smooth="yes"/>
      <point x="57" y="26"/>
      <point x="114" y="-15"/>
      <point x="196" y="-15" type="curve" smooth="yes"/>
      <point x="224" y="-15"/>
      <point x="241" y="-13"/>
      <point x="256" y="0" type="curve"/>
      <point x="251" y="8"/>
      <point x="213" y="14"/>
      <point x="213" y="11" type="curve"/>
      <point x="206.00394599638537" y="-35.973505452841096"/>
      <point x="133.58314614894232" y="-88.00702243794069"/>
      <point x="28" y="-132" type="curve"/>
    </contour>
  </outline>
</glyph>
<glyph name="two" format="2">
  <advance width="666"/>
  <unicode hex="0032"/>
  <outline>
    <contour>
      <point x="384" y="145" type="line" smooth="yes"/>
      <point x="475" y="145"/>
      <point x="506" y="149"/>
      <point x="514" y="185" type="curve" smooth="yes"/>
      <point x="523" y="235" type="line"/>
      <point x="632" y="235" type="line"/>
      <point x="632" y="0" type="line"/>
      <point x="23" y="0" type="line"/>
      <point x="23" y="158" type="line"/>
      <point x="210" y="247"/>
      <point x="345" y="302"/>
      <point x="345" y="439" type="curve" smooth="yes"/>
      <point x="345" y="500"/>
      <point x="325" y="529"/>
      <point x="278" y="529" type="curve" smooth="yes"/>
      <point x="239.1025641025641" y="529.0"/>
      <point x="215.3447627695214" y="507.4717806319766"/>
      <point x="196" y="481" type="curve"/>
      <point x="190.82258807444677" y="489.2838590808852"/>
      <point x="190.42093608131336" y="534.6384949537879"/>
      <point x="233" y="538" type="curve"/>
      <point x="233" y="413" type="line"/>
      <point x="28" y="413" type="line"/>
      <point x="28" y="542" type="line"/>
      <point x="82" y="580"/>
      <point x="182" y="618"/>
      <point x="317" y="618" type="curve" smooth="yes"/>
      <point x="515" y="618"/>
      <point x="616" y="550"/>
      <point x="616" y="439" type="curve" smooth="yes"/>
      <point x="616" y="279"/>
      <point x="352" y="189"/>
      <point x="142" y="122" type="curve"/>
      <point x="119" y="118"/>
      <point x="126" y="139"/>
      <point x="127" y="145" type="curve"/>
    </contour>
  </outline>
</glyph>
<glyph name="five" format="2">
  <advance width="666"/>
  <unicode hex="0035"/>
  <outline>
    <contour>
      <point x="322" y="-90" type="curve"/>
      <point x="150" y="-90"/>
      <point x="59" y="-19"/>
      <point x="13" y="71" type="curve"/>
      <point x="106" y="131" type="line"/>
      <point x="137.0736737433357" y="66.84789936859735"/>
      <point x="194.0848484848485" y="4.0"/>
      <point x="275" y="4.0" type="curve" smooth="yes"/>
      <point x="350.1636363636364" y="4.0"/>
      <point x="381.0" y="55.0"/>
      <point x="381" y="152" type="curve" smooth="yes"/>
      <point x="381.0" y="233.0"/>
      <point x="356.80645161290323" y="279.0"/>
      <point x="291" y="279" type="curve" smooth="yes"/>
      <point x="238.4851485148515" y="279.0"/>
      <point x="207.11346010440423" y="250.23826621924886"/>
      <point x="187" y="208" type="curve"/>
      <point x="76" y="208" type="line"/>
      <point x="76" y="609" type="line"/>
      <point x="584" y="609" type="line"/>
      <point x="566" y="463" type="line"/>
      <point x="181" y="463" type="line"/>
      <point x="200" y="589" type="line"/>
      <point x="200" y="276" type="line"/>
      <point x="194" y="263"/>
      <point x="178" y="258"/>
      <point x="166" y="269" type="curve"/>
      <point x="206" y="326"/>
      <point x="261" y="366"/>
      <point x="384" y="366" type="curve" smooth="yes"/>
      <point x="553" y="366"/>
      <point x="647" y="272"/>
      <point x="647" y="151" type="curve" smooth="yes"/>
      <point x="647" y="5"/>
      <point x="523" y="-90"/>
    </contour>
  </outline>
</glyph>
<glyph name="six" format="2">
  <advance width="666"/>
  <unicode hex="0036"/>
  <outline>
    <contour>
      <point x="577" y="655" type="line"/>
      <point x="400.84987567498035" y="618.763402995996"/>
      <point x="283.0" y="494.0"/>
      <point x="283" y="287" type="curve" smooth="yes"/>
      <point x="283.0" y="114.0"/>
      <point x="300.68" y="75.0"/>
      <point x="335" y="75" type="curve" smooth="yes"/>
      <point x="367.4761904761905" y="75.0"/>
      <point x="379.0" y="116.0"/>
      <point x="379" y="229" type="curve" smooth="yes"/>
      <point x="379.0" y="313.0"/>
      <point x="372.7551020408164" y="368.0"/>
      <point x="328" y="368" type="curve" smooth="yes"/>
      <point x="293" y="368"/>
      <point x="271" y="334"/>
      <point x="242" y="282" type="curve"/>
      <point x="237" y="353" type="line"/>
      <point x="256" y="400"/>
      <point x="303" y="453"/>
      <point x="409" y="453" type="curve" smooth="yes"/>
      <point x="551.0" y="453.0"/>
      <point x="648.0" y="379.54838709677415"/>
      <point x="648" y="246" type="curve" smooth="yes"/>
      <point x="648.0" y="85.739837398374"/>
      <point x="527.0" y="-10.0"/>
      <point x="343" y="-10" type="curve" smooth="yes"/>
      <point x="146" y="-10"/>
      <point x="18" y="84"/>
      <point x="18" y="295" type="curve" smooth="yes"/>
      <point x="18" y="513"/>
      <point x="218" y="702"/>
      <point x="560" y="740" type="curve"/>
    </contour>
  </outline>
</glyph>
<glyph name="D" format="2">
  <advance width="971"/>
  <unicode hex="0044"/>
  <anchor x="462.44000000000005" y="741.0" name="top"/>
  <anchor x="462.44000000000005" y="0.0" name="bottom"/>
  <outline>
    <contour>
      <point x="26" y="634" type="line"/>
      <point x="39" y="634" type="line" smooth="yes"/>
      <point x="68" y="634"/>
      <point x="89" y="625"/>
      <point x="89" y="598" type="curve" smooth="yes"/>
      <point x="89" y="112" type="line" smooth="yes"/>
      <point x="89" y="83"/>
      <point x="68" y="76"/>
      <point x="39" y="76" type="curve" smooth="yes"/>
      <point x="26" y="76" type="line"/>
      <point x="26" y="0" type="line"/>
      <point x="494" y="0" type="line" smooth="yes"/>
      <point x="754.0" y="0.0"/>
      <point x="937.0" y="133.0"/>
      <point x="937" y="357" type="curve" smooth="yes"/>
      <point x="937.0" y="582.0"/>
      <point x="754.0" y="710.0"/>
      <point x="494" y="710" type="curve" smooth="yes"/>
      <point x="26" y="710" type="line"/>
    </contour>
    <contour>
      <point x="446" y="623" type="line" smooth="yes"/>
      <point x="554.0" y="623.0"/>
      <point x="616" y="535"/>
      <point x="616" y="357" type="curve" smooth="yes"/>
      <point x="616" y="179"/>
      <point x="551.0" y="87.0"/>
      <point x="446" y="87" type="curve" smooth="yes"/>
      <point x="398" y="87" type="line"/>
      <point x="398" y="623" type="line"/>
    </contour>
  </outline>
</glyph>
<glyph name="E" format="2">
  <advance width="774"/>
  <unicode hex="0045"/>
  <anchor x="450.82" y="741.0" name="top"/>
  <anchor x="526.7" y="0.0" name="right"/>
  <anchor x="450.82" y="0.0" name="bottom"/>
  <outline>
    <contour>
      <point x="746" y="232" type="line"/>
      <point x="618" y="232" type="line"/>
      <point x="607" y="145" type="line" smooth="yes"/>
      <point x="600" y="93"/>
      <point x="577.0" y="86.0"/>
      <point x="476" y="86" type="curve" smooth="yes"/>
      <point x="398" y="86" type="line"/>
      <point x="398" y="624" type="line"/>
      <point x="478" y="624" type="line" smooth="yes"/>
      <point x="545" y="624.0"/>
      <point x="580.282702085378" y="615.6725495534814"/>
      <point x="583" y="576" type="curve" smooth="yes"/>
      <point x="588" y="503" type="line"/>
      <point x="714" y="503" type="line"/>
      <point x="714" y="710" type="line"/>
      <point x="26" y="710" type="line"/>
      <point x="26" y="634" type="line"/>
      <point x="38" y="634" type="line" smooth="yes"/>
      <point x="68" y="634"/>
      <point x="89" y="627"/>
      <point x="89" y="598" type="curve" smooth="yes"/>
      <point x="89" y="112" type="line" smooth="yes"/>
      <point x="89" y="83"/>
      <point x="68" y="76"/>
      <point x="38" y="76" type="curve" smooth="yes"/>
      <point x="26" y="76" type="line"/>
      <point x="26" y="0" type="line"/>
      <point x="746" y="0" type="line"/>
    </contour>
    <contour>
      <point x="366" y="401" type="curve"/>
      <point x="366" y="326" type="line"/>
      <point x="452" y="322"/>
      <point x="536" y="317"/>
      <point x="616" y="313" type="curve"/>
      <point x="616" y="414" type="line"/>
      <point x="533" y="409"/>
      <point x="449" y="405"/>
    </contour>
  </outline>
</glyph>
<glyph name="F" format="2">
  <advance width="748"/>
  <unicode hex="0046"/>
  <outline>
    <contour>
      <point x="398" y="624" type="line"/>
      <point x="484" y="624" type="line" smooth="yes"/>
      <point x="553.0" y="624.0"/>
      <point x="583" y="617"/>
      <point x="588" y="572" type="curve" smooth="yes"/>
      <point x="595" y="503" type="line"/>
      <point x="720" y="503" type="line"/>
      <point x="720" y="710" type="line"/>
      <point x="26" y="710" type="line"/>
      <point x="26" y="634" type="line"/>
      <point x="38" y="634" type="line" smooth="yes"/>
      <point x="68" y="634"/>
      <point x="89" y="627"/>
      <point x="89" y="598" type="curve" smooth="yes"/>
      <point x="89" y="112" type="line" smooth="yes"/>
      <point x="89" y="83"/>
      <point x="68" y="76"/>
      <point x="38" y="76" type="curve" smooth="yes"/>
      <point x="26" y="76" type="line"/>
      <point x="26" y="0" type="line"/>
      <point x="485" y="0" type="line"/>
      <point x="485" y="76" type="line"/>
      <point x="465" y="76" type="line" smooth="yes"/>
      <point x="435" y="76"/>
      <point x="398" y="77"/>
      <point x="398" y="112" type="curve" smooth="yes"/>
    </contour>
    <contour>
      <point x="366" y="394" type="curve"/>
      <point x="366" y="319" type="line"/>
      <point x="450" y="315"/>
      <point x="534" y="310"/>
      <point x="618" y="306" type="curve"/>
      <point x="618" y="407" type="line"/>
      <point x="534" y="402"/>
      <point x="450" y="398"/>
    </contour>
  </outline>
</glyph>
<glyph name="G" format="2">
  <advance width="921"/>
  <unicode hex="0047"/>
  <anchor x="472" y="741.0" name="top"/>
  <anchor x="472" y="0.0" name="bottom"/>
  <outline>
    <contour>
      <point x="850" y="249" type="line" smooth="yes"/>
      <point x="850" y="278"/>
      <point x="867" y="285"/>
      <point x="889" y="285" type="curve" smooth="yes"/>
      <point x="897" y="285" type="line"/>
      <point x="897" y="361" type="line"/>
      <point x="511" y="361" type="line"/>
      <point x="511" y="285" type="line"/>
      <point x="522" y="285" type="line" smooth="yes"/>
      <point x="553" y="285"/>
      <point x="573" y="278"/>
      <point x="573" y="249" type="curve" smooth="yes"/>
      <point x="573" y="108" type="line"/>
      <point x="558" y="95"/>
      <point x="534" y="84"/>
      <point x="501" y="84" type="curve" smooth="yes"/>
      <point x="412" y="84"/>
      <point x="354" y="163"/>
      <point x="354" y="355" type="curve" smooth="yes"/>
      <point x="354" y="529"/>
      <point x="405" y="626"/>
      <point x="518" y="626" type="curve" smooth="yes"/>
      <point x="612" y="626"/>
      <point x="665" y="559"/>
      <point x="695" y="481" type="curve"/>
      <point x="824" y="481" type="line"/>
      <point x="824" y="710" type="line"/>
      <point x="709" y="710" type="line"/>
      <point x="684" y="535" type="line"/>
      <point x="761" y="522" type="line"/>
      <point x="722" y="646"/>
      <point x="648" y="720"/>
      <point x="465" y="720" type="curve" smooth="yes"/>
      <point x="211" y="720"/>
      <point x="33" y="569"/>
      <point x="33" y="355" type="curve" smooth="yes"/>
      <point x="33" y="135"/>
      <point x="204" y="-10"/>
      <point x="481" y="-10" type="curve" smooth="yes"/>
      <point x="656" y="-10"/>
      <point x="785" y="44"/>
      <point x="850" y="101" type="curve"/>
    </contour>
  </outline>
</glyph>
<glyph name="L" format="2">
  <advance width="774"/>
  <unicode hex="004C"/>
  <anchor x="450.81999999999994" y="741.0" name="top"/>
  <anchor x="560.0999999999999" y="710.0" name="right"/>
  <anchor x="562.6399999999999" y="410.0" name="mid"/>
  <anchor x="450.81999999999994" y="0.0" name="bottom"/>
  <outline>
    <contour>
      <point x="472" y="710" type="line"/>
      <point x="472" y="634" type="line"/>
      <point x="453" y="634" type="line" smooth="yes"/>
      <point x="421" y="634"/>
      <point x="398" y="627"/>
      <point x="398" y="598" type="curve" smooth="yes"/>
      <point x="398" y="86" type="line"/>
      <point x="473" y="86" type="line" smooth="yes"/>
      <point x="572.0" y="86.0"/>
      <point x="600" y="93"/>
      <point x="605" y="138" type="curve" smooth="yes"/>
      <point x="616" y="245" type="line"/>
      <point x="747" y="245" type="line"/>
      <point x="747" y="0" type="line"/>
      <point x="26" y="0" type="line"/>
      <point x="26" y="76" type="line"/>
      <point x="38" y="76" type="line" smooth="yes"/>
      <point x="68" y="76"/>
      <point x="89" y="83"/>
      <point x="89" y="112" type="curve" smooth="yes"/>
      <point x="89" y="598" type="line" smooth="yes"/>
      <point x="89" y="627"/>
      <point x="68" y="634"/>
      <point x="38" y="634" type="curve" smooth="yes"/>
      <point x="26" y="634" type="line"/>
      <point x="26" y="710" type="line"/>
    </contour>
  </outline>
</glyph>
<glyph name="M" format="2">
  <advance width="1159"/>
  <unicode hex="004D"/>
  <anchor x="553.02" y="0.0" name="bottom"/>
  <outline>
    <contour>
      <point x="26" y="0" type="line"/>
      <point x="270" y="0" type="line"/>
      <point x="270" y="76" type="line"/>
      <point x="261" y="76" type="line" smooth="yes"/>
      <point x="234" y="76"/>
      <point x="207" y="79"/>
      <point x="207" y="86" type="curve" smooth="yes"/>
      <point x="207" y="687" type="line"/>
      <point x="186" y="687" type="line"/>
      <point x="407" y="-2" type="line"/>
      <point x="560" y="-2" type="line"/>
      <point x="780" y="686" type="line"/>
      <point x="761" y="688" type="line"/>
      <point x="761" y="86" type="line" smooth="yes"/>
      <point x="761" y="79"/>
      <point x="734" y="76"/>
      <point x="707" y="76" type="curve" smooth="yes"/>
      <point x="698" y="76" type="line"/>
      <point x="698" y="0" type="line"/>
      <point x="1133" y="0" type="line"/>
      <point x="1133" y="76" type="line"/>
      <point x="1121" y="76" type="line" smooth="yes"/>
      <point x="1091" y="76"/>
      <point x="1070" y="83"/>
      <point x="1070" y="112" type="curve" smooth="yes"/>
      <point x="1070" y="598" type="line" smooth="yes"/>
      <point x="1070" y="627"/>
      <point x="1091" y="634"/>
      <point x="1121" y="634" type="curve" smooth="yes"/>
      <point x="1133" y="634" type="line"/>
      <point x="1133" y="710" type="line"/>
      <point x="669" y="710" type="line"/>
      <point x="558" y="304" type="line"/>
      <point x="615" y="222" type="line"/>
      <point x="496" y="710" type="line"/>
      <point x="26" y="710" type="line"/>
      <point x="26" y="634" type="line"/>
      <point x="38" y="634" type="line" smooth="yes"/>
      <point x="68" y="634"/>
      <point x="89" y="627"/>
      <point x="89" y="598" type="curve" smooth="yes"/>
      <point x="89" y="112" type="line" smooth="yes"/>
      <point x="89" y="83"/>
      <point x="68" y="76"/>
      <point x="38" y="76" type="curve"/>
      <point x="26" y="76" type="line"/>
    </contour>
  </outline>
</glyph>
<glyph name="O" format="2">
  <advance width="967"/>
  <unicode hex="004F"/>
  <anchor x="472.06000000000006" y="741.0" name="top"/>
  <anchor x="472.06000000000006" y="0.0" name="bottom"/>
  <outline>
    <contour>
      <point x="484" y="720" type="curve" smooth="yes"/>
      <point x="218.0" y="720.0"/>
      <point x="33.0" y="575.0"/>
      <point x="33" y="355" type="curve" smooth="yes"/>
      <point x="33.0" y="134"/>
      <point x="218.0" y="-10.0"/>
      <point x="484" y="-10" type="curve" smooth="yes"/>
      <point x="750" y="-10"/>
      <point x="935" y="134"/>
      <point x="935" y="355" type="curve" smooth="yes"/>
      <point x="935.0" y="575.0"/>
      <point x="750.0" y="720.0"/>
    </contour>
    <contour>
      <point x="484.0" y="83.0" type="curve" smooth="yes"/>
      <point x="400" y="83.0"/>
      <point x="354.0" y="170"/>
      <point x="354.0" y="355.0" type="curve" smooth="yes"/>
      <point x="354.0" y="540"/>
      <point x="400" y="627.0"/>
      <point x="484.0" y="627.0" type="curve" smooth="yes"/>
      <point x="568" y="627.0"/>
      <point x="614.0" y="540"/>
      <point x="614.0" y="355.0" type="curve" smooth="yes"/>
      <point x="614.0" y="170"/>
      <point x="568" y="83.0"/>
    </contour>
  </outline>
</glyph>
<glyph name="T" format="2">
  <advance width="902"/>
  <unicode hex="0054"/>
  <anchor x="403.2600000000001" y="741.0" name="top"/>
  <anchor x="403.2600000000001" y="0.0" name="bottom"/>
  <outline>
    <contour>
      <point x="296" y="112" type="line" smooth="yes"/>
      <point x="296" y="83"/>
      <point x="276" y="76"/>
      <point x="246" y="76" type="curve" smooth="yes"/>
      <point x="230" y="76" type="line"/>
      <point x="230" y="0" type="line"/>
      <point x="672" y="0" type="line"/>
      <point x="672" y="76" type="line"/>
      <point x="655" y="76" type="line" smooth="yes"/>
      <point x="625" y="76"/>
      <point x="605" y="83"/>
      <point x="605" y="112" type="curve" smooth="yes"/>
      <point x="605" y="623" type="line"/>
      <point x="616" y="623" type="line" smooth="yes"/>
      <point x="708.0" y="623.0"/>
      <point x="730" y="616"/>
      <point x="734" y="568" type="curve" smooth="yes"/>
      <point x="742" y="467" type="line"/>
      <point x="874" y="467" type="line"/>
      <point x="874" y="710" type="line"/>
      <point x="27" y="710" type="line"/>
      <point x="27" y="467" type="line"/>
      <point x="159" y="467" type="line"/>
      <point x="168" y="568" type="line" smooth="yes"/>
      <point x="172" y="616"/>
      <point x="194.0" y="623.0"/>
      <point x="285" y="623" type="curve" smooth="yes"/>
      <point x="296" y="623" type="line"/>
    </contour>
  </outline>
</glyph>
<glyph name="U" format="2">
  <advance width="883"/>
  <unicode hex="0055"/>
  <anchor x="485.21999999999997" y="741.0" name="top"/>
  <anchor x="550.48" y="0.0" name="right"/>
  <anchor x="485.21999999999997" y="0.0" name="bottom"/>
  <outline>
    <contour>
      <point x="396" y="262" type="curve" smooth="yes"/>
      <point x="396" y="624" type="line" smooth="yes"/>
      <point x="396" y="631"/>
      <point x="425" y="634"/>
      <point x="447" y="634" type="curve" smooth="yes"/>
      <point x="458" y="634" type="line"/>
      <point x="458" y="710" type="line"/>
      <point x="24" y="710" type="line"/>
      <point x="24" y="634" type="line"/>
      <point x="35" y="634" type="line" smooth="yes"/>
      <point x="65" y="634"/>
      <point x="87" y="627"/>
      <point x="87" y="598" type="curve" smooth="yes"/>
      <point x="87" y="262" type="line" smooth="yes"/>
      <point x="87" y="71.10545454545456"/>
      <point x="231.0" y="-10.0"/>
      <point x="461" y="-10" type="curve" smooth="yes"/>
      <point x="661.0" y="-10.0"/>
      <point x="796" y="68.1381818181818"/>
      <point x="796" y="262" type="curve" smooth="yes"/>
      <point x="796" y="596" type="line" smooth="yes"/>
      <point x="796" y="626"/>
      <point x="818" y="634"/>
      <point x="848" y="634" type="curve" smooth="yes"/>
      <point x="860" y="634" type="line"/>
      <point x="860" y="710" type="line"/>
      <point x="617" y="710" type="line"/>
      <point x="617" y="634" type="line"/>
      <point x="626" y="634" type="line" smooth="yes"/>
      <point x="650" y="634"/>
      <point x="679" y="628"/>
      <point x="679" y="614" type="curve" smooth="yes"/>
      <point x="679" y="262" type="line" smooth="yes"/>
      <point x="679" y="145.10000000000002"/>
      <point x="625.0" y="95.0"/>
      <point x="536" y="95" type="curve" smooth="yes"/>
      <point x="436.0" y="95.0"/>
      <point x="396" y="139.20588235294116"/>
    </contour>
  </outline>
</glyph>
<glyph name="X" format="2">
  <advance width="872"/>
  <unicode hex="0058"/>
  <outline>
    <contour>
      <point x="14" y="634" type="line"/>
      <point x="18" y="634" type="line" smooth="yes"/>
      <point x="46" y="634"/>
      <point x="54" y="629"/>
      <point x="75" y="602" type="curve" smooth="yes"/>
      <point x="293" y="314" type="line"/>
      <point x="300" y="310" type="line"/>
      <point x="463" y="86" type="line"/>
      <point x="463" y="79"/>
      <point x="438" y="76"/>
      <point x="416" y="76" type="curve" smooth="yes"/>
      <point x="400" y="76" type="line"/>
      <point x="400" y="0" type="line"/>
      <point x="863" y="0" type="line"/>
      <point x="863" y="76" type="line"/>
      <point x="853" y="76" type="line" smooth="yes"/>
      <point x="825" y="76"/>
      <point x="816" y="81"/>
      <point x="794" y="110" type="curve" smooth="yes"/>
      <point x="559" y="411" type="line"/>
      <point x="552" y="414" type="line"/>
      <point x="403" y="624" type="line"/>
      <point x="403.0" y="631.0"/>
      <point x="429" y="634"/>
      <point x="450" y="634" type="curve" smooth="yes"/>
      <point x="472" y="634" type="line"/>
      <point x="472" y="710" type="line"/>
      <point x="14" y="710" type="line"/>
    </contour>
    <contour>
      <point x="8" y="0" type="line"/>
      <point x="253" y="0" type="line"/>
      <point x="253" y="76" type="line"/>
      <point x="238" y="76" type="line" smooth="yes"/>
      <point x="216" y="76"/>
      <point x="187" y="83"/>
      <point x="187" y="94" type="curve"/>
      <point x="387" y="351" type="line"/>
      <point x="301" y="394" type="line"/>
      <point x="85" y="122" type="line" smooth="yes"/>
      <point x="57.67571497318932" y="87.59164107734952"/>
      <point x="43.769230769230774" y="76"/>
      <point x="18" y="76" type="curve" smooth="yes"/>
      <point x="8" y="76" type="line"/>
    </contour>
    <contour>
      <point x="573" y="328" type="line"/>
      <point x="759" y="589" type="line" smooth="yes"/>
      <point x="783" y="623"/>
      <point x="798" y="634"/>
      <point x="827" y="634" type="curve" smooth="yes"/>
      <point x="832" y="634" type="line"/>
      <point x="832" y="710" type="line"/>
      <point x="597" y="710" type="line"/>
      <point x="597" y="634" type="line"/>
      <point x="611" y="634" type="line" smooth="yes"/>
      <point x="633" y="634"/>
      <point x="660" y="627"/>
      <point x="660" y="616" type="curve"/>
      <point x="510" y="404" type="line"/>
    </contour>
  </outline>
</glyph>
<glyph name="Z" format="2">
  <advance width="766"/>
  <unicode hex="005A"/>
  <anchor x="391.1" y="741.0" name="top"/>
  <anchor x="391.1" y="0.0" name="bottom"/>
  <outline>
    <contour>
      <point x="208" y="87" type="line"/>
      <point x="262" y="9" type="line"/>
      <point x="729" y="603" type="line"/>
      <point x="729" y="710" type="line"/>
      <point x="44" y="710" type="line"/>
      <point x="44" y="495" type="line"/>
      <point x="173" y="495" type="line"/>
      <point x="177" y="570" type="line" smooth="yes"/>
      <point x="180" y="616"/>
      <point x="216.0" y="623.0"/>
      <point x="283" y="623" type="curve" smooth="yes"/>
      <point x="514" y="623" type="line"/>
      <point x="472" y="689" type="line"/>
      <point x="19" y="111" type="line"/>
      <point x="19" y="0" type="line"/>
      <point x="748" y="0" type="line"/>
      <point x="748" y="239" type="line"/>
      <point x="619" y="239" type="line"/>
      <point x="606" y="138" type="line" smooth="yes"/>
      <point x="600" y="94"/>
      <point x="575.0" y="87.0"/>
      <point x="476" y="87" type="curve" smooth="yes"/>
    </contour>
  </outline>
</glyph>
<glyph name="c" format="2">
  <advance width="698"/>
  <unicode hex="0063"/>
  <anchor x="355.7" y="551.0" name="top"/>
  <anchor x="367.31999999999994" y="0.0" name="bottom"/>
  <outline>
    <contour>
      <point x="446" y="81" type="curve" smooth="yes"/>
      <point x="368" y="81"/>
      <point x="325" y="145"/>
      <point x="325" y="256" type="curve" smooth="yes"/>
      <point x="325" y="368"/>
      <point x="359" y="434"/>
      <point x="417" y="434" type="curve" smooth="yes"/>
      <point x="444" y="434"/>
      <point x="455" y="421"/>
      <point x="469" y="401" type="curve"/>
      <point x="499" y="412"/>
      <point x="503" y="456"/>
      <point x="453" y="458" type="curve"/>
      <point x="453" y="326" type="line"/>
      <point x="660" y="326" type="line"/>
      <point x="660" y="465" type="line"/>
      <point x="634" y="484"/>
      <point x="550" y="523"/>
      <point x="400" y="523" type="curve" smooth="yes"/>
      <point x="173" y="523"/>
      <point x="27" y="423"/>
      <point x="27" y="256" type="curve" smooth="yes"/>
      <point x="27" y="88"/>
      <point x="183" y="-10"/>
      <point x="390" y="-10" type="curve" smooth="yes"/>
      <point x="543.4577464788732" y="-10.0"/>
      <point x="623" y="49"/>
      <point x="673" y="134" type="curve"/>
      <point x="598" y="190" type="line"/>
      <point x="569" y="142"/>
      <point x="520.9142857142857" y="81.0"/>
    </contour>
  </outline>
</glyph>
<glyph name="g" format="2">
  <advance width="776"/>
  <unicode hex="0067"/>
  <anchor x="322.3" y="545.0" name="top"/>
  <outline>
    <contour>
      <point x="357" y="240.0" type="curve" smooth="yes"/>
      <point x="323" y="240.0"/>
      <point x="307" y="268"/>
      <point x="307" y="340" type="curve" smooth="yes"/>
      <point x="307" y="414"/>
      <point x="323" y="444.0"/>
      <point x="357" y="444.0" type="curve" smooth="yes"/>
      <point x="393" y="444.0"/>
      <point x="408" y="414"/>
      <point x="408" y="340" type="curve" smooth="yes"/>
      <point x="408" y="268"/>
      <point x="393" y="240.0"/>
    </contour>
    <contour>
      <point x="357" y="165" type="curve" smooth="yes"/>
      <point x="547" y="165"/>
      <point x="672" y="229"/>
      <point x="672" y="342" type="curve" smooth="yes"/>
      <point x="672" y="455"/>
      <point x="547" y="523"/>
      <point x="357" y="523" type="curve" smooth="yes"/>
      <point x="167" y="523"/>
      <point x="45" y="455"/>
      <point x="45" y="342" type="curve" smooth="yes"/>
      <point x="45" y="229"/>
      <point x="165" y="165"/>
    </contour>
    <contour>
      <point x="580" y="407" type="line"/>
      <point x="621" y="415"/>
      <point x="690" y="410"/>
      <point x="771" y="394" type="curve"/>
      <point x="771" y="533" type="line"/>
      <point x="662" y="545"/>
      <point x="603" y="493"/>
      <point x="550" y="409" type="curve"/>
    </contour>
    <contour>
      <point x="382" y="-236" type="line" smooth="yes"/>
      <point x="609.0" y="-236.0"/>
      <point x="760" y="-169"/>
      <point x="760" y="-36" type="curve" smooth="yes"/>
      <point x="760" y="60"/>
      <point x="668" y="103"/>
      <point x="530" y="103" type="curve" smooth="yes"/>
      <point x="273" y="103.0" type="line" smooth="yes"/>
      <point x="235.0" y="103.0"/>
      <point x="220" y="112"/>
      <point x="220" y="132" type="curve" smooth="yes"/>
      <point x="220.0" y="154"/>
      <point x="246.9387598219511" y="174.98412291680214"/>
      <point x="301" y="189" type="curve"/>
      <point x="222" y="215" type="line"/>
      <point x="90.81740190579288" y="184.95818364254797"/>
      <point x="21.0" y="134.91034482758621"/>
      <point x="21" y="68" type="curve" smooth="yes"/>
      <point x="21.0" y="7.016393442622949"/>
      <point x="68.19093467377257" y="-29.052909608394813"/>
      <point x="151" y="-52" type="curve"/>
      <point x="158" y="-72" type="line"/>
      <point x="485" y="-72" type="line" smooth="yes"/>
      <point x="516.0" y="-72.0"/>
      <point x="529.0" y="-81.0"/>
      <point x="529" y="-100" type="curve" smooth="yes"/>
      <point x="529.0" y="-133.0"/>
      <point x="486.0" y="-158.0"/>
      <point x="372" y="-158" type="curve" smooth="yes"/>
      <point x="335" y="-158" type="line" smooth="yes"/>
      <point x="231" y="-158"/>
      <point x="187" y="-142"/>
      <point x="187" y="-109" type="curve" smooth="yes"/>
      <point x="187" y="-86"/>
      <point x="201" y="-71"/>
      <point x="241" y="-56" type="curve"/>
      <point x="190" y="-25" type="line"/>
      <point x="38.0" y="-44.0"/>
      <point x="-18.0" y="-74.0"/>
      <point x="-18" y="-126" type="curve" smooth="yes"/>
      <point x="-18" y="-207"/>
      <point x="107" y="-236"/>
      <point x="300" y="-236" type="curve" smooth="yes"/>
    </contour>
  </outline>
</glyph>
<glyph name="i" format="2">
  <advance width="405"/>
  <unicode hex="0069"/>
  <anchor x="200.85999999999996" y="551.0" name="top"/>
  <anchor x="255.5" y="-10.0" name="right"/>
  <anchor x="198.32000000000002" y="-10.0" name="bottom"/>
  <outline>
    <contour>
      <point x="203" y="567" type="curve" smooth="yes"/>
      <point x="298" y="567"/>
      <point x="351" y="600"/>
      <point x="351" y="658" type="curve" smooth="yes"/>
      <point x="351" y="715"/>
      <point x="298" y="748"/>
      <point x="203" y="748" type="curve" smooth="yes"/>
      <point x="111" y="748"/>
      <point x="56" y="715"/>
      <point x="56" y="658" type="curve" smooth="yes"/>
      <point x="56" y="600"/>
      <point x="111" y="567"/>
    </contour>
    <contour>
      <point x="351" y="513" type="line"/>
      <point x="19" y="513" type="line"/>
      <point x="19" y="439" type="line"/>
      <point x="27" y="437" type="line" smooth="yes"/>
      <point x="51" y="430"/>
      <point x="60" y="426"/>
      <point x="60" y="408" type="curve" smooth="yes"/>
      <point x="60" y="98" type="line" smooth="yes"/>
      <point x="60" y="77"/>
      <point x="41" y="71"/>
      <point x="20" y="71" type="curve" smooth="yes"/>
      <point x="19" y="71" type="line"/>
      <point x="19" y="0" type="line"/>
      <point x="391" y="0" type="line"/>
      <point x="391" y="71" type="line"/>
      <point x="390" y="71" type="line" smooth="yes"/>
      <point x="368" y="71"/>
      <point x="351" y="77"/>
      <point x="351" y="98" type="curve" smooth="yes"/>
    </contour>
  </outline>
</glyph>
<glyph name="j" format="2">
  <advance width="388"/>
  <unicode hex="006A"/>
  <anchor x="189.24" y="551.0" name="top"/>
  <outline>
    <contour>
      <point x="56" y="-42" type="line" smooth="yes"/>
      <point x="56" y="-120.0"/>
      <point x="30.025974025974023" y="-146.0"/>
      <point x="-24" y="-146" type="curve" smooth="yes"/>
      <point x="-51.774647887323944" y="-146.0"/>
      <point x="-73.9652336470032" y="-139.6951893746306"/>
      <point x="-92" y="-134" type="curve"/>
      <point x="-92" y="-226" type="line"/>
      <point x="-68.04977298201467" y="-232.7060635650359"/>
      <point x="-27.5968992248062" y="-236.0"/>
      <point x="32" y="-236" type="curve" smooth="yes"/>
      <point x="249.4516129032258" y="-236.0"/>
      <point x="347.0" y="-175.0"/>
      <point x="347" y="-15" type="curve" smooth="yes"/>
      <point x="347" y="513" type="line"/>
      <point x="4" y="513" type="line"/>
      <point x="4" y="439" type="line"/>
      <point x="12" y="437" type="line" smooth="yes"/>
      <point x="35" y="431"/>
      <point x="56" y="426"/>
      <point x="56" y="408" type="curve" smooth="yes"/>
    </contour>
    <contour>
      <point x="198" y="567" type="curve" smooth="yes"/>
      <point x="291" y="567"/>
      <point x="346" y="600"/>
      <point x="346" y="658" type="curve" smooth="yes"/>
      <point x="346" y="715"/>
      <point x="291" y="748"/>
      <point x="198" y="748" type="curve" smooth="yes"/>
      <point x="105" y="748"/>
      <point x="51" y="715"/>
      <point x="51" y="658" type="curve" smooth="yes"/>
      <point x="51" y="600"/>
      <point x="105" y="567"/>
    </contour>
  </outline>
</glyph>
<glyph name="k" format="2">
  <advance width="866"/>
  <unicode hex="006B"/>
  <anchor x="381.48" y="0.0" name="bottom"/>
  <outline>
    <contour>
      <point x="852" y="0" type="line"/>
      <point x="852" y="71" type="line"/>
      <point x="849" y="71" type="line"/>
      <point x="822.0010666666666" y="71.0"/>
      <point x="797.8642741090514" y="80.75788464292174"/>
      <point x="780" y="110" type="curve" smooth="yes"/>
      <point x="612" y="385" type="line"/>
      <point x="506" y="269" type="line"/>
      <point x="690" y="402" type="line" smooth="yes"/>
      <point x="719" y="423"/>
      <point x="751" y="442"/>
      <point x="798" y="442" type="curve"/>
      <point x="800" y="442" type="line"/>
      <point x="800" y="513" type="line"/>
      <point x="483" y="513" type="line"/>
      <point x="483" y="442" type="line"/>
      <point x="492" y="442" type="line"/>
      <point x="520" y="442"/>
      <point x="572" y="439"/>
      <point x="572" y="424" type="curve"/>
      <point x="374" y="280" type="line"/>
      <point x="374" y="251" type="line"/>
      <point x="478" y="79" type="line"/>
      <point x="478.0" y="73.0"/>
      <point x="454.25" y="71.0"/>
      <point x="440" y="71" type="curve"/>
      <point x="436" y="71" type="line"/>
      <point x="436" y="0" type="line"/>
    </contour>
    <contour>
      <point x="351" y="735" type="line"/>
      <point x="19" y="735" type="line"/>
      <point x="19" y="661" type="line"/>
      <point x="27" y="659" type="line" smooth="yes"/>
      <point x="51" y="652"/>
      <point x="60" y="648"/>
      <point x="60" y="630" type="curve" smooth="yes"/>
      <point x="60" y="98" type="line" smooth="yes"/>
      <point x="60" y="77"/>
      <point x="41" y="71"/>
      <point x="20" y="71" type="curve"/>
      <point x="19" y="71" type="line"/>
      <point x="19" y="0" type="line"/>
      <point x="387" y="0" type="line"/>
      <point x="387" y="71" type="line"/>
      <point x="383" y="71" type="line" smooth="yes"/>
      <point x="371" y="71"/>
      <point x="351" y="73"/>
      <point x="351" y="79" type="curve" smooth="yes"/>
    </contour>
  </outline>
</glyph>
<glyph name="y" format="2">
  <advance width="728"/>
  <unicode hex="0079"/>
  <anchor x="356.70000000000005" y="551.0" name="top"/>
  <anchor x="367.31999999999994" y="-211.0" name="bottom"/>
  <outline>
    <contour>
      <point x="325" y="-69" type="line"/>
      <point x="379" y="16" type="line"/>
      <point x="493" y="169" type="line"/>
      <point x="345" y="433" type="line"/>
      <point x="345" y="440"/>
      <point x="373" y="442"/>
      <point x="404" y="442" type="curve" smooth="yes"/>
      <point x="405" y="442" type="line"/>
      <point x="405" y="513" type="line"/>
      <point x="10" y="513" type="line"/>
      <point x="10" y="442" type="line"/>
      <point x="11" y="442" type="line"/>
      <point x="40" y="442"/>
      <point x="48" y="434"/>
      <point x="62" y="407" type="curve" smooth="yes"/>
    </contour>
    <contour>
      <point x="165" y="-234" type="curve" smooth="yes"/>
      <point x="286" y="-234"/>
      <point x="363" y="-163"/>
      <point x="439" y="-20" type="curve" smooth="yes"/>
      <point x="660" y="397" type="line" smooth="yes"/>
      <point x="676" y="430"/>
      <point x="691" y="442"/>
      <point x="717" y="442" type="curve"/>
      <point x="718" y="442" type="line"/>
      <point x="718" y="513" type="line"/>
      <point x="498" y="513" type="line"/>
      <point x="498" y="442" type="line"/>
      <point x="502" y="442" type="line" smooth="yes"/>
      <point x="530" y="442"/>
      <point x="558" y="433"/>
      <point x="558" y="420" type="curve"/>
      <point x="382" y="72" type="line"/>
      <point x="337" y="12" type="line"/>
      <point x="306.0" y="-67.0"/>
      <point x="270" y="-86"/>
      <point x="187" y="-86" type="curve" smooth="yes"/>
      <point x="122" y="-86"/>
      <point x="68.0" y="-61.0"/>
      <point x="56" y="-59" type="curve"/>
      <point x="56" y="-212" type="line"/>
      <point x="74" y="-223"/>
      <point x="114" y="-234"/>
    </contour>
  </outline>
</glyph>
<glyph name="hbar" format="2">
  <advance width="812"/>
  <unicode hex="0127"/>
  <outline>
    <contour>
      <point x="804" y="0" type="line"/>
      <point x="804" y="71" type="line"/>
      <point x="801" y="71" type="line" smooth="yes"/>
      <point x="780" y="71"/>
      <point x="764" y="77"/>
      <point x="764" y="98" type="curve" smooth="yes"/>
      <point x="764" y="345" type="line" smooth="yes"/>
      <point x="764" y="461"/>
      <point x="680" y="523"/>
      <point x="553" y="523" type="curve" smooth="yes"/>
      <point x="447" y="523"/>
      <point x="368" y="474"/>
      <point x="333" y="402" type="curve"/>
      <point x="346" y="325" type="line"/>
      <point x="366" y="376"/>
      <point x="395" y="408"/>
      <point x="431" y="408" type="curve" smooth="yes"/>
      <point x="462" y="408"/>
      <point x="472" y="390"/>
      <point x="472" y="352" type="curve" smooth="yes"/>
      <point x="472" y="79" type="line" smooth="yes"/>
      <point x="472" y="73"/>
      <point x="452" y="71"/>
      <point x="438" y="71" type="curve" smooth="yes"/>
      <point x="436" y="71" type="line"/>
      <point x="436" y="0" type="line"/>
    </contour>
    <contour>
      <point x="60" y="735" type="line"/>
      <point x="60" y="98" type="line" smooth="yes"/>
      <point x="60" y="77"/>
      <point x="41" y="71"/>
      <point x="20" y="71" type="curve" smooth="yes"/>
      <point x="19" y="71" type="line"/>
      <point x="19" y="0" type="line"/>
      <point x="387" y="0" type="line"/>
      <point x="387" y="71" type="line"/>
      <point x="383" y="71" type="line" smooth="yes"/>
      <point x="371" y="71"/>
      <point x="351" y="73"/>
      <point x="351" y="79" type="curve"/>
      <point x="351" y="735" type="line"/>
    </contour>
    <contour>
      <point x="524" y="653" type="line"/>
      <point x="7" y="653" type="line"/>
      <point x="7" y="565" type="line"/>
      <point x="524" y="565" type="line"/>
    </contour>
  </outline>
</glyph>
<glyph name="circumflex" format="2">
  <advance width="594"/>
  <unicode hex="02C6"/>
  <anchor x="291.44000000000005" y="529.0" name="_top"/>
  <outline>
    <contour>
      <point x="427" y="730" type="line"/>
      <point x="567" y="581" type="line"/>
      <point x="567" y="556" type="line"/>
      <point x="446" y="556" type="line"/>
      <point x="230" y="663" type="line"/>
      <point x="402" y="663" type="line"/>
      <point x="183" y="556" type="line"/>
      <point x="75" y="556" type="line"/>
      <point x="75" y="581" type="line"/>
      <point x="217" y="730" type="line"/>
    </contour>
  </outline>
</glyph>
<glyph name="tilde" format="2">
  <advance width="595"/>
  <unicode hex="02DC"/>
  <anchor x="297.52" y="516.0" name="_top"/>
  <outline>
    <contour>
      <point x="376" y="557" type="curve" smooth="yes"/>
      <point x="461" y="557"/>
      <point x="510" y="618"/>
      <point x="534" y="714" type="curve"/>
      <point x="425" y="743" type="line"/>
      <point x="412" y="707"/>
      <point x="404" y="688"/>
      <point x="376" y="688" type="curve" smooth="yes"/>
      <point x="329" y="688"/>
      <point x="299" y="741"/>
      <point x="218" y="741" type="curve" smooth="yes"/>
      <point x="123" y="741"/>
      <point x="85" y="683"/>
      <point x="64" y="585" type="curve"/>
      <point x="174" y="557" type="line"/>
      <point x="183" y="594"/>
      <point x="191" y="612"/>
      <point x="219" y="612" type="curve" smooth="yes"/>
      <point x="259" y="612"/>
      <point x="285" y="557"/>
    </contour>
  </outline>
</glyph>
<glyph name="uni27F7" format="2">
  <advance width="1545"/>
  <unicode hex="27F7"/>
  <outline>
    <contour>
      <point x="1207" y="324" type="line"/>
      <point x="1101" y="192" type="line"/>
      <point x="1113" y="179" type="line"/>
      <point x="1479" y="346" type="line"/>
      <point x="1479" y="360" type="line"/>
      <point x="1113" y="527" type="line"/>
      <point x="1101" y="514" type="line"/>
      <point x="1207" y="382" type="line"/>
      <point x="337" y="382" type="line"/>
      <point x="444" y="514" type="line"/>
      <point x="432" y="527" type="line"/>
      <point x="65" y="360" type="line"/>
      <point x="65" y="346" type="line"/>
      <point x="432" y="179" type="line"/>
      <point x="444" y="192" type="line"/>
      <point x="337" y="324" type="line"/>
    </contour>
  </outline>
</glyph>
<glyph name="E.alt" format="2">
  <advance width="768"/>
  <outline>
    <contour>
      <point x="741" y="211" type="line"/>
      <point x="612" y="211" type="line"/>
      <point x="599" y="129" type="line" smooth="yes"/>
      <point x="594" y="93"/>
      <point x="560" y="86"/>
      <point x="470" y="86" type="curve" smooth="yes"/>
      <point x="398" y="86" type="line"/>
      <point x="398" y="624" type="line"/>
      <point x="472" y="624" type="line" smooth="yes"/>
      <point x="531" y="624"/>
      <point x="572" y="617"/>
      <point x="577" y="581" type="curve" smooth="yes"/>
      <point x="583" y="524" type="line"/>
      <point x="709" y="524" type="line"/>
      <point x="709" y="710" type="line"/>
      <point x="26" y="710" type="line"/>
      <point x="26" y="634" type="line"/>
      <point x="38" y="634" type="line" smooth="yes"/>
      <point x="68" y="634"/>
      <point x="89" y="627"/>
      <point x="89" y="598" type="curve" smooth="yes"/>
      <point x="89" y="112" type="line" smooth="yes"/>
      <point x="89" y="83"/>
      <point x="68" y="76"/>
      <point x="38" y="76" type="curve" smooth="yes"/>
      <point x="26" y="76" type="line"/>
      <point x="26" y="0" type="line"/>
      <point x="741" y="0" type="line"/>
    </contour>
    <contour>
      <point x="301" y="325" type="line"/>
      <point x="462" y="325" type="line" smooth="yes"/>
      <point x="497" y="325"/>
      <point x="507" y="302"/>
      <point x="507" y="277" type="curve" smooth="yes"/>
      <point x="507" y="271" type="line"/>
      <point x="606" y="271" type="line"/>
      <point x="606" y="463" type="line"/>
      <point x="507" y="463" type="line"/>
      <point x="507" y="457" type="line" smooth="yes"/>
      <point x="507" y="431"/>
      <point x="497" y="408"/>
      <point x="462" y="408" type="curve" smooth="yes"/>
      <point x="301" y="408" type="line"/>
    </contour>
  </outline>
</glyph>
<glyph name="breve.uc" format="2">
  <advance width="595"/>
  <anchor x="297.52" y="694.0" name="_top"/>
  <outline>
    <contour>
      <point x="298" y="747" type="curve" smooth="yes"/>
      <point x="186" y="747"/>
      <point x="96" y="799"/>
      <point x="91" y="913" type="curve"/>
      <point x="219" y="913" type="line"/>
      <point x="224" y="874"/>
      <point x="252" y="862"/>
      <point x="301" y="862" type="curve" smooth="yes"/>
      <point x="350" y="862"/>
      <point x="377" y="874"/>
      <point x="381" y="913" type="curve"/>
      <point x="504" y="913" type="line"/>
      <point x="498" y="799"/>
      <point x="409" y="747"/>
    </contour>
  </outline>
</glyph>
<glyph name="breve_acute.uc" format="2">
  <advance width="607"/>
  <anchor x="297.52" y="744.0" name="_top"/>
  <outline>
    <contour>
      <point x="289" y="1032" type="curve" smooth="yes"/>
      <point x="244" y="958" type="line"/>
      <point x="244" y="931" type="line"/>
      <point x="317" y="931" type="line"/>
      <point x="391" y="955" type="line" smooth="yes"/>
      <point x="471" y="976"/>
      <point x="502" y="1003"/>
      <point x="502" y="1044" type="curve" smooth="yes"/>
      <point x="502" y="1080"/>
      <point x="468" y="1105"/>
      <point x="414" y="1105" type="curve" smooth="yes"/>
      <point x="357" y="1105"/>
      <point x="320" y="1080"/>
    </contour>
    <component base="breve.uc" xOffset="44.819999999999986"/>
  </outline>
</glyph>
<glyph name="breve_grave.uc" format="2">
  <advance width="607"/>
  <anchor x="297.52" y="744.0" name="_top"/>
  <outline>
    <contour>
      <point x="326" y="1032" type="curve" smooth="yes"/>
      <point x="371" y="958" type="line"/>
      <point x="371" y="931" type="line"/>
      <point x="298" y="931" type="line"/>
      <point x="224" y="955" type="line" smooth="yes"/>
      <point x="144" y="976"/>
      <point x="113" y="1003"/>
      <point x="113" y="1044" type="curve" smooth="yes"/>
      <point x="113" y="1080"/>
      <point x="147" y="1105"/>
      <point x="201" y="1105" type="curve" smooth="yes"/>
      <point x="258" y="1105"/>
      <point x="295" y="1080"/>
    </contour>
    <component base="breve.uc" xOffset="34.01999999999995"/>
  </outline>
</glyph>
<glyph name="five.old" format="2">
  <advance width="666"/>
  <outline>
    <contour>
      <point x="329" y="-151" type="curve" smooth="yes"/>
      <point x="157" y="-151"/>
      <point x="64" y="-81"/>
      <point x="20" y="10" type="curve"/>
      <point x="133" y="65" type="line"/>
      <point x="158" y="12"/>
      <point x="204" y="-57"/>
      <point x="284" y="-57" type="curve" smooth="yes"/>
      <point x="357" y="-57"/>
      <point x="389" y="-5"/>
      <point x="389" y="91" type="curve" smooth="yes"/>
      <point x="389" y="172"/>
      <point x="360" y="218"/>
      <point x="298" y="218" type="curve" smooth="yes"/>
      <point x="244" y="218"/>
      <point x="215" y="191"/>
      <point x="196" y="147" type="curve"/>
      <point x="83" y="147" type="line"/>
      <point x="83" y="548" type="line"/>
      <point x="591" y="548" type="line"/>
      <point x="573" y="402" type="line"/>
      <point x="188" y="402" type="line"/>
      <point x="207" y="528" type="line"/>
      <point x="207" y="215" type="line"/>
      <point x="201" y="202"/>
      <point x="186" y="197"/>
      <point x="174" y="208" type="curve"/>
      <point x="214" y="263"/>
      <point x="268" y="305"/>
      <point x="391" y="305" type="curve" smooth="yes"/>
      <point x="560" y="305"/>
      <point x="654" y="211"/>
      <point x="654" y="90" type="curve" smooth="yes"/>
      <point x="654" y="-56"/>
      <point x="530" y="-151"/>
    </contour>
  </outline>
</glyph>
<glyph name="four.lin" format="2">
  <advance width="666"/>
  <outline>
    <contour>
      <point x="24" y="177" type="line"/>
      <point x="659" y="177" type="line"/>
      <point x="659" y="317" type="line"/>
      <point x="130" y="317" type="line"/>
      <point x="89" y="241" type="line"/>
      <point x="359" y="630" type="line"/>
      <point x="377" y="710" type="line"/>
      <point x="298" y="710" type="line"/>
      <point x="24" y="319" type="line"/>
    </contour>
    <contour>
      <point x="241" y="0" type="line"/>
      <point x="649" y="0" type="line"/>
      <point x="649" y="76" type="line"/>
      <point x="638" y="76" type="line" smooth="yes"/>
      <point x="608" y="76"/>
      <point x="586" y="83"/>
      <point x="586" y="112" type="curve" smooth="yes"/>
      <point x="586" y="710" type="line"/>
      <point x="335" y="710" type="line"/>
      <point x="316" y="621" type="line"/>
      <point x="316" y="112" type="line" smooth="yes"/>
      <point x="316" y="83"/>
      <point x="295" y="76"/>
      <point x="259" y="76" type="curve" smooth="yes"/>
      <point x="241" y="76" type="line"/>
    </contour>
  </outline>
</glyph>
<glyph name="two.old" format="2">
  <advance width="666"/>
  <outline>
    <contour>
      <point x="285" y="469" type="curve" smooth="yes"/>
      <point x="244" y="469"/>
      <point x="218" y="447"/>
      <point x="201" y="421" type="curve"/>
      <point x="196" y="429"/>
      <point x="196" y="475"/>
      <point x="234" y="478" type="curve"/>
      <point x="234" y="355" type="line"/>
      <point x="30" y="355" type="line"/>
      <point x="30" y="484" type="line"/>
      <point x="84" y="521"/>
      <point x="184" y="558"/>
      <point x="322" y="558" type="curve" smooth="yes"/>
      <point x="521" y="558"/>
      <point x="616" y="497"/>
      <point x="616" y="397" type="curve" smooth="yes"/>
      <point x="616" y="255"/>
      <point x="361" y="177"/>
      <point x="144" y="126" type="curve"/>
      <point x="119" y="115"/>
      <point x="126" y="131"/>
      <point x="127" y="142" type="curve"/>
      <point x="385" y="142" type="line" smooth="yes"/>
      <point x="476" y="142"/>
      <point x="506" y="148"/>
      <point x="515" y="183" type="curve" smooth="yes"/>
      <point x="523" y="223" type="line"/>
      <point x="632" y="223" type="line"/>
      <point x="632" y="0" type="line"/>
      <point x="23" y="0" type="line"/>
      <point x="23" y="162" type="line"/>
      <point x="206" y="232"/>
      <point x="345" y="278"/>
      <point x="345" y="406" type="curve" smooth="yes"/>
      <point x="345" y="451"/>
      <point x="326" y="469"/>
    </contour>
  </outline>
</glyph>
<glyph name="zero.slash" format="2">
  <advance width="666"/>
  <outline>
    <contour>
      <point x="196" y="134" type="line"/>
      <point x="471" y="371" type="line"/>
      <point x="471" y="474" type="line"/>
      <point x="196" y="237" type="line"/>
    </contour>
    <contour>
      <point x="333" y="-11" type="curve" smooth="yes"/>
      <point x="520" y="-11"/>
      <point x="652" y="109"/>
      <point x="652" y="304" type="curve" smooth="yes"/>
      <point x="652" y="499"/>
      <point x="520" y="619"/>
      <point x="333" y="619" type="curve" smooth="yes"/>
      <point x="146" y="619"/>
      <point x="14" y="499"/>
      <point x="14" y="304" type="curve" smooth="yes"/>
      <point x="14" y="109"/>
      <point x="146" y="-11"/>
    </contour>
    <contour>
      <point x="333" y="78" type="curve" smooth="yes"/>
      <point x="285" y="78"/>
      <point x="272" y="125"/>
      <point x="272" y="304" type="curve" smooth="yes"/>
      <point x="272" y="483"/>
      <point x="285" y="530"/>
      <point x="333" y="530" type="curve" smooth="yes"/>
      <point x="381" y="530"/>
      <point x="394" y="483"/>
      <point x="394" y="304" type="curve" smooth="yes"/>
      <point x="394" y="125"/>
      <point x="381" y="78"/>
    </contour>
  </outline>
</glyph>
<glyph name="zero.slashlin" format="2">
  <advance width="666"/>
  <outline>
    <contour>
      <point x="471" y="524" type="line"/>
      <point x="196" y="287" type="line"/>
      <point x="196" y="184" type="line"/>
      <point x="471" y="421" type="line"/>
    </contour>
    <contour>
      <point x="333" y="-11" type="curve" smooth="yes"/>
      <point x="520" y="-11"/>
      <point x="653" y="128"/>
      <point x="653" y="354" type="curve" smooth="yes"/>
      <point x="653" y="582"/>
      <point x="520" y="720"/>
      <point x="333" y="720" type="curve" smooth="yes"/>
      <point x="146" y="720"/>
      <point x="13" y="582"/>
      <point x="13" y="354" type="curve" smooth="yes"/>
      <point x="13" y="128"/>
      <point x="146" y="-11"/>
    </contour>
    <contour>
      <point x="333" y="78" type="curve" smooth="yes"/>
      <point x="286" y="78"/>
      <point x="275" y="132"/>
      <point x="275" y="354" type="curve" smooth="yes"/>
      <point x="275" y="579"/>
      <point x="286" y="631"/>
      <point x="333" y="631" type="curve" smooth="yes"/>
      <point x="381" y="631"/>
      <point x="391" y="579"/>
      <point x="391" y="354" type="curve" smooth="yes"/>
      <point x="391" y="132"/>
      <point x="379" y="78"/>
    </contour>
  </outline>
</glyph>
